<svg viewBox="0 0 438.947 540" xmlns="http://www.w3.org/2000/svg" xmlns:xlink="http://www.w3.org/1999/xlink" width="438.947266" height="540.000000" fill="none" customFrame="#000000">
	<path id="矢量 664" d="M14.6602 435.842C14.6953 435.806 14.7129 435.752 14.7129 435.681L14.7129 404.164L27.2285 404.164C30.6934 404.164 33.9238 403.573 36.9199 402.392C38.2383 401.872 39.5098 401.239 40.7363 400.492C43.6484 398.719 46.1016 396.58 48.0938 394.076C48.8535 393.123 49.5449 392.117 50.1699 391.059C52.0918 387.805 53.2012 384.48 53.4941 381.086C53.5469 380.473 53.5742 379.857 53.5742 379.239C53.5742 378.325 53.5176 377.417 53.4043 376.517C53.0098 373.39 51.9316 370.349 50.1699 367.394C49.5195 366.302 48.7949 365.268 48 364.293C46.0234 361.873 43.6035 359.815 40.7363 358.121C39.6562 357.482 38.541 356.93 37.3906 356.462C34.2617 355.191 30.873 354.557 27.2285 354.557L0.214844 354.557C0.142578 354.557 0.0898438 354.574 0.0527344 354.61C0.0175781 354.646 0 354.699 0 354.771L0 435.681C0 435.752 0.0175781 435.806 0.0527344 435.842C0.0898438 435.878 0.142578 435.896 0.214844 435.896L14.498 435.896C14.5703 435.896 14.625 435.878 14.6602 435.842ZM14.7129 368.814L14.7129 389.906L27.2285 389.906C29.7129 389.906 31.8301 389.433 33.5801 388.485C34.9824 387.722 36.1016 386.756 36.9434 385.589C37.1641 385.282 37.3652 384.961 37.5469 384.627C37.7051 384.337 37.8477 384.042 37.9766 383.741C38.5664 382.367 38.8613 380.866 38.8613 379.239C38.8613 377.591 38.5527 376.081 37.9355 374.709C37.8184 374.445 37.6875 374.187 37.5469 373.934C37.3652 373.605 37.1641 373.292 36.9414 372.993C36.1016 371.857 34.9805 370.93 33.5801 370.208C31.8301 369.279 29.7129 368.814 27.2285 368.814L14.7129 368.814Z" fill="rgb(255,255,255)" fill-rule="evenodd" />
	<path id="矢量 664" d="M65.5449 417.785L65.5449 377.826C65.5449 377.754 65.5625 377.7 65.5977 377.665C65.6348 377.629 65.6875 377.611 65.7598 377.611L79.373 377.611C79.4453 377.611 79.498 377.629 79.5352 377.665C79.5703 377.7 79.5879 377.754 79.5879 377.826L79.5879 382.896C79.9473 382.591 80.3145 382.295 80.6875 382.007C82.7168 380.436 84.877 379.195 87.168 378.285C90.3242 377.032 93.7285 376.405 97.3828 376.405C97.4551 376.405 97.5078 376.423 97.5449 376.459C97.5801 376.494 97.5977 376.548 97.5977 376.62L97.5977 389.806C97.5977 389.877 97.5801 389.931 97.5449 389.966C97.5078 390.002 97.4551 390.02 97.3828 390.02C93.2031 390.02 89.8086 390.592 87.1992 391.735C86.0312 392.243 84.998 392.901 84.1016 393.711C83.0117 394.696 82.123 395.904 81.4375 397.336C80.2051 399.927 79.5879 403.456 79.5879 407.922L79.5879 435.58C79.5879 435.651 79.5703 435.705 79.5352 435.741C79.498 435.776 79.4453 435.795 79.373 435.795L65.7598 435.795C65.6875 435.795 65.6348 435.776 65.5977 435.741C65.5625 435.705 65.5449 435.651 65.5449 435.58L65.5449 417.785Z" fill="rgb(255,255,255)" fill-rule="evenodd" />
	<path id="矢量 664" d="M65.5449 417.785L65.5449 377.826C65.5449 377.754 65.5625 377.7 65.5977 377.665C65.6348 377.629 65.6875 377.611 65.7598 377.611L79.373 377.611C79.4453 377.611 79.498 377.629 79.5352 377.665C79.5703 377.7 79.5879 377.754 79.5879 377.826L79.5879 382.896C79.9473 382.591 80.3145 382.295 80.6875 382.007C82.7168 380.436 84.877 379.195 87.168 378.285C90.3242 377.032 93.7285 376.405 97.3828 376.405C97.4551 376.405 97.5078 376.423 97.5449 376.459C97.5801 376.494 97.5977 376.548 97.5977 376.62L97.5977 389.806C97.5977 389.877 97.5801 389.931 97.5449 389.966C97.5078 390.002 97.4551 390.02 97.3828 390.02C93.2031 390.02 89.8086 390.592 87.1992 391.735C86.0312 392.243 84.998 392.901 84.1016 393.711C83.0117 394.696 82.123 395.904 81.4375 397.336C80.2051 399.927 79.5879 403.456 79.5879 407.922L79.5879 435.58C79.5879 435.651 79.5703 435.705 79.5352 435.741C79.498 435.776 79.4453 435.795 79.373 435.795L65.7598 435.795C65.6875 435.795 65.6348 435.776 65.5977 435.741C65.5625 435.705 65.5449 435.651 65.5449 435.58L65.5449 417.785Z" fill="rgb(255,255,255)" fill-rule="evenodd" />
	<path id="矢量 664" d="M120.111 365.781C120.146 365.745 120.164 365.691 120.164 365.62L120.164 352.542C120.164 352.47 120.146 352.416 120.111 352.381C120.074 352.345 120.021 352.327 119.949 352.327L106.336 352.327C106.264 352.327 106.211 352.345 106.174 352.381C106.139 352.416 106.121 352.47 106.121 352.542L106.121 365.62C106.121 365.691 106.139 365.745 106.174 365.781C106.211 365.816 106.264 365.834 106.336 365.834L119.949 365.834C120.021 365.834 120.074 365.816 120.111 365.781ZM120.111 435.488C120.146 435.452 120.164 435.398 120.164 435.327L120.164 377.573C120.164 377.502 120.146 377.448 120.111 377.412C120.074 377.376 120.021 377.358 119.949 377.358L106.336 377.358C106.264 377.358 106.211 377.376 106.174 377.412C106.139 377.448 106.121 377.502 106.121 377.573L106.121 435.327C106.121 435.398 106.139 435.452 106.174 435.488C106.211 435.524 106.264 435.542 106.336 435.542L119.949 435.542C120.021 435.542 120.074 435.524 120.111 435.488Z" fill="rgb(255,255,255)" fill-rule="evenodd" />
	<path id="矢量 664" d="M120.111 365.781C120.146 365.745 120.164 365.691 120.164 365.62L120.164 352.542C120.164 352.47 120.146 352.416 120.111 352.381C120.074 352.345 120.021 352.327 119.949 352.327L106.336 352.327C106.264 352.327 106.211 352.345 106.174 352.381C106.139 352.416 106.121 352.47 106.121 352.542L106.121 365.62C106.121 365.691 106.139 365.745 106.174 365.781C106.211 365.816 106.264 365.834 106.336 365.834L119.949 365.834C120.021 365.834 120.074 365.816 120.111 365.781ZM120.111 435.488C120.146 435.452 120.164 435.398 120.164 435.327L120.164 377.573C120.164 377.502 120.146 377.448 120.111 377.412C120.074 377.376 120.021 377.358 119.949 377.358L106.336 377.358C106.264 377.358 106.211 377.376 106.174 377.412C106.139 377.448 106.121 377.502 106.121 377.573L106.121 435.327C106.121 435.398 106.139 435.452 106.174 435.488C106.211 435.524 106.264 435.542 106.336 435.542L119.949 435.542C120.021 435.542 120.074 435.524 120.111 435.488Z" fill="rgb(255,255,255)" fill-rule="evenodd" />
	<path id="矢量 664" d="M127.08 419.932C127.07 419.967 127.092 420.012 127.15 420.069C127.957 422.3 129.053 424.309 130.436 426.093C132.42 428.653 134.996 430.755 138.164 432.397C140.682 433.693 143.275 434.61 145.945 435.147C148.98 435.757 152.113 435.877 155.344 435.506C159.646 435.013 163.346 433.667 166.439 431.469C167.711 430.564 168.881 429.517 169.949 428.323C171.316 426.773 172.355 425.094 173.07 423.286C173.812 421.406 174.201 419.387 174.236 417.229C174.266 415.524 174.051 413.893 173.592 412.333C172.906 409.998 171.674 407.825 169.896 405.812C169.699 405.589 169.496 405.372 169.289 405.161C166.355 402.188 162.26 400.358 157.004 399.674L147.893 398.469C146.355 398.236 145.203 397.683 144.436 396.807C144.004 396.314 143.699 395.782 143.521 395.211C143.383 394.767 143.32 394.298 143.336 393.805C143.348 393.446 143.396 393.098 143.484 392.758C143.674 392.016 144.045 391.319 144.596 390.669C145.953 389.117 147.449 388.144 149.084 387.748C149.389 387.675 149.697 387.621 150.01 387.587C150.746 387.509 151.473 387.516 152.188 387.606C153.434 387.764 154.646 388.178 155.826 388.847C156.467 389.207 157.07 389.612 157.637 390.063C158.732 390.935 159.691 391.977 160.516 393.188C160.516 393.225 160.525 393.251 160.543 393.269C160.561 393.287 160.588 393.296 160.623 393.296L160.838 393.296L171.719 386.917C171.746 386.917 171.771 386.912 171.795 386.9C171.83 386.883 171.857 386.854 171.879 386.811C171.891 386.786 171.896 386.763 171.896 386.738C171.896 386.691 171.873 386.644 171.826 386.596C169.627 382.933 166.225 379.985 161.615 377.752C158.994 376.482 156.314 375.663 153.572 375.294C151.492 375.014 149.375 374.993 147.223 375.232C145.518 375.423 143.898 375.825 142.365 376.44C139.428 377.618 136.805 379.573 134.492 382.308C133.334 383.632 132.436 385.063 131.795 386.603C130.982 388.554 130.586 390.678 130.607 392.975C130.623 394.865 130.928 396.654 131.521 398.343C132.211 400.309 133.291 402.137 134.762 403.828C135.314 404.462 135.91 405.044 136.549 405.577C139.08 407.688 142.271 409.009 146.123 409.537L155.236 410.743C157.434 411.047 159.078 411.672 160.168 412.619C160.893 413.238 161.363 413.93 161.584 414.694C161.701 415.099 161.746 415.523 161.721 415.969C161.711 416.147 161.691 416.325 161.662 416.501C161.484 417.571 160.949 418.582 160.061 419.533C159.121 420.588 158.066 421.432 156.898 422.063C155.713 422.707 154.408 423.132 152.984 423.339C151.617 423.53 150.285 423.514 148.988 423.289C147.627 423.053 146.307 422.587 145.025 421.892C143.832 421.239 142.816 420.433 141.979 419.472C141.072 418.432 140.371 417.21 139.879 415.808L139.719 415.647C139.709 415.632 139.695 415.622 139.684 415.618C139.65 415.61 139.609 415.638 139.559 415.701L127.256 419.748L127.096 419.908C127.088 419.916 127.084 419.924 127.08 419.932Z" fill="rgb(255,255,255)" fill-rule="evenodd" />
	<path id="矢量 664" d="M127.08 419.932C127.07 419.967 127.092 420.012 127.15 420.069C127.957 422.3 129.053 424.309 130.436 426.093C132.42 428.653 134.996 430.755 138.164 432.397C140.682 433.693 143.275 434.61 145.945 435.147C148.98 435.757 152.113 435.877 155.344 435.506C159.646 435.013 163.346 433.667 166.439 431.469C167.711 430.564 168.881 429.517 169.949 428.323C171.316 426.773 172.355 425.094 173.07 423.286C173.812 421.406 174.201 419.387 174.236 417.229C174.266 415.524 174.051 413.893 173.592 412.333C172.906 409.998 171.674 407.825 169.896 405.812C169.699 405.589 169.496 405.372 169.289 405.161C166.355 402.188 162.26 400.358 157.004 399.674L147.893 398.469C146.355 398.236 145.203 397.683 144.436 396.807C144.004 396.314 143.699 395.782 143.521 395.211C143.383 394.767 143.32 394.298 143.336 393.805C143.348 393.446 143.396 393.098 143.484 392.758C143.674 392.016 144.045 391.319 144.596 390.669C145.953 389.117 147.449 388.144 149.084 387.748C149.389 387.675 149.697 387.621 150.01 387.587C150.746 387.509 151.473 387.516 152.188 387.606C153.434 387.764 154.646 388.178 155.826 388.847C156.467 389.207 157.07 389.612 157.637 390.063C158.732 390.935 159.691 391.977 160.516 393.188C160.516 393.225 160.525 393.251 160.543 393.269C160.561 393.287 160.588 393.296 160.623 393.296L160.838 393.296L171.719 386.917C171.746 386.917 171.771 386.912 171.795 386.9C171.83 386.883 171.857 386.854 171.879 386.811C171.891 386.786 171.896 386.763 171.896 386.738C171.896 386.691 171.873 386.644 171.826 386.596C169.627 382.933 166.225 379.985 161.615 377.752C158.994 376.482 156.314 375.663 153.572 375.294C151.492 375.014 149.375 374.993 147.223 375.232C145.518 375.423 143.898 375.825 142.365 376.44C139.428 377.618 136.805 379.573 134.492 382.308C133.334 383.632 132.436 385.063 131.795 386.603C130.982 388.554 130.586 390.678 130.607 392.975C130.623 394.865 130.928 396.654 131.521 398.343C132.211 400.309 133.291 402.137 134.762 403.828C135.314 404.462 135.91 405.044 136.549 405.577C139.08 407.688 142.271 409.009 146.123 409.537L155.236 410.743C157.434 411.047 159.078 411.672 160.168 412.619C160.893 413.238 161.363 413.93 161.584 414.694C161.701 415.099 161.746 415.523 161.721 415.969C161.711 416.147 161.691 416.325 161.662 416.501C161.484 417.571 160.949 418.582 160.061 419.533C159.121 420.588 158.066 421.432 156.898 422.063C155.713 422.707 154.408 423.132 152.984 423.339C151.617 423.53 150.285 423.514 148.988 423.289C147.627 423.053 146.307 422.587 145.025 421.892C143.832 421.239 142.816 420.433 141.979 419.472C141.072 418.432 140.371 417.21 139.879 415.808L139.719 415.647C139.709 415.632 139.695 415.622 139.684 415.618C139.65 415.61 139.609 415.638 139.559 415.701L127.256 419.748L127.096 419.908C127.088 419.916 127.084 419.924 127.08 419.932Z" fill="rgb(255,255,255)" fill-rule="evenodd" />
	<path id="矢量 664" d="M194.818 434.362C194.854 434.343 194.871 434.314 194.871 434.276L194.871 388.229L233.295 434.256C233.295 434.274 233.303 434.29 233.314 434.305C233.336 434.326 233.369 434.344 233.42 434.356C233.502 434.379 233.586 434.391 233.668 434.391L250.949 434.391C251.053 434.391 251.125 434.379 251.166 434.356C251.207 434.335 251.229 434.301 251.229 434.256L201.898 375.201C201.898 375.184 201.891 375.168 201.877 375.153C201.857 375.132 201.822 375.114 201.773 375.101C201.691 375.078 201.607 375.067 201.525 375.067L194.66 375.067L184.244 375.067L181.24 375.067C181.17 375.067 181.117 375.077 181.082 375.096C181.047 375.114 181.029 375.144 181.029 375.181L181.029 434.276C181.029 434.314 181.047 434.343 181.082 434.362C181.117 434.381 181.17 434.391 181.24 434.391L194.66 434.391C194.73 434.391 194.783 434.381 194.818 434.362Z" fill="rgb(255,255,255)" fill-rule="evenodd" />
	<path id="矢量 664" d="M194.818 434.362C194.854 434.343 194.871 434.314 194.871 434.276L194.871 388.229L233.295 434.256C233.295 434.274 233.303 434.29 233.314 434.305C233.336 434.326 233.369 434.344 233.42 434.356C233.502 434.379 233.586 434.391 233.668 434.391L250.949 434.391C251.053 434.391 251.125 434.379 251.166 434.356C251.207 434.335 251.229 434.301 251.229 434.256L201.898 375.201C201.898 375.184 201.891 375.168 201.877 375.153C201.857 375.132 201.822 375.114 201.773 375.101C201.691 375.078 201.607 375.067 201.525 375.067L194.66 375.067L184.244 375.067L181.24 375.067C181.17 375.067 181.117 375.077 181.082 375.096C181.047 375.114 181.029 375.144 181.029 375.181L181.029 434.276C181.029 434.314 181.047 434.343 181.082 434.362C181.117 434.381 181.17 434.391 181.24 434.391L194.66 434.391C194.73 434.391 194.783 434.381 194.818 434.362Z" fill="rgb(255,255,255)" fill-rule="evenodd" />
	<path id="矢量 664" d="M291.896 434.356C291.939 434.335 291.959 434.301 291.959 434.256L242.629 375.201C242.629 375.184 242.621 375.168 242.609 375.153C242.588 375.132 242.555 375.114 242.504 375.101C242.422 375.078 242.338 375.067 242.256 375.067L224.975 375.067C224.893 375.067 224.83 375.078 224.789 375.101C224.748 375.123 224.727 375.157 224.727 375.201L274.027 434.256C274.027 434.274 274.033 434.29 274.047 434.305C274.066 434.326 274.102 434.344 274.15 434.356C274.232 434.379 274.316 434.391 274.398 434.391L291.68 434.391C291.783 434.391 291.855 434.379 291.896 434.356Z" fill="rgb(255,255,255)" fill-rule="evenodd" />
	<path id="矢量 664" d="M291.896 434.356C291.939 434.335 291.959 434.301 291.959 434.256L242.629 375.201C242.629 375.184 242.621 375.168 242.609 375.153C242.588 375.132 242.555 375.114 242.504 375.101C242.422 375.078 242.338 375.067 242.256 375.067L224.975 375.067C224.893 375.067 224.83 375.078 224.789 375.101C224.748 375.123 224.727 375.157 224.727 375.201L274.027 434.256C274.027 434.274 274.033 434.29 274.047 434.305C274.066 434.326 274.102 434.344 274.15 434.356C274.232 434.379 274.316 434.391 274.398 434.391L291.68 434.391C291.783 434.391 291.855 434.379 291.896 434.356Z" fill="rgb(255,255,255)" fill-rule="evenodd" />
	<path id="矢量 664" d="M14.6602 538.693C14.6953 538.657 14.7129 538.604 14.7129 538.532L14.7129 503.96L50.8398 503.96L50.8398 538.532C50.8398 538.604 50.8574 538.657 50.8945 538.693C50.9297 538.729 50.9824 538.747 51.0547 538.747L65.3125 538.747C65.3848 538.747 65.4375 538.729 65.4727 538.693C65.4941 538.68 65.5098 538.663 65.5234 538.645C65.543 538.613 65.5547 538.576 65.5547 538.532L65.5547 457.623C65.5547 457.579 65.543 457.541 65.5234 457.511C65.5098 457.492 65.4941 457.476 65.4727 457.462C65.4375 457.426 65.3848 457.408 65.3125 457.408L51.0547 457.408C50.9824 457.408 50.9297 457.426 50.8945 457.462C50.8574 457.497 50.8398 457.551 50.8398 457.623L50.8398 489.676L14.7129 489.676L14.7129 457.623C14.7129 457.551 14.6953 457.497 14.6602 457.462C14.625 457.426 14.5703 457.408 14.5 457.408L0.214844 457.408C0.142578 457.408 0.0898438 457.426 0.0527344 457.462C0.0175781 457.497 0 457.551 0 457.623L0 538.532C0 538.604 0.0175781 538.657 0.0527344 538.693C0.0898438 538.729 0.142578 538.747 0.214844 538.747L14.5 538.747C14.5703 538.747 14.625 538.729 14.6602 538.693Z" fill="rgb(255,255,255)" fill-rule="evenodd" />
	<path id="矢量 664" d="M14.6602 538.693C14.6953 538.657 14.7129 538.604 14.7129 538.532L14.7129 503.96L50.8398 503.96L50.8398 538.532C50.8398 538.604 50.8574 538.657 50.8945 538.693C50.9297 538.729 50.9824 538.747 51.0547 538.747L65.3125 538.747C65.3848 538.747 65.4375 538.729 65.4727 538.693C65.4941 538.68 65.5098 538.663 65.5234 538.645C65.543 538.613 65.5547 538.576 65.5547 538.532L65.5547 457.623C65.5547 457.579 65.543 457.541 65.5234 457.511C65.5098 457.492 65.4941 457.476 65.4727 457.462C65.4375 457.426 65.3848 457.408 65.3125 457.408L51.0547 457.408C50.9824 457.408 50.9297 457.426 50.8945 457.462C50.8574 457.497 50.8398 457.551 50.8398 457.623L50.8398 489.676L14.7129 489.676L14.7129 457.623C14.7129 457.551 14.6953 457.497 14.6602 457.462C14.625 457.426 14.5703 457.408 14.5 457.408L0.214844 457.408C0.142578 457.408 0.0898438 457.426 0.0527344 457.462C0.0175781 457.497 0 457.551 0 457.623L0 538.532C0 538.604 0.0175781 538.657 0.0527344 538.693C0.0898438 538.729 0.142578 538.747 0.214844 538.747L14.5 538.747C14.5703 538.747 14.625 538.729 14.6602 538.693Z" fill="rgb(255,255,255)" fill-rule="evenodd" />
	<path id="矢量 664" d="M94.709 538.744C97.4922 539.581 100.402 540 103.436 540C106.525 540 109.482 539.566 112.305 538.699C114.494 538.026 116.604 537.093 118.633 535.899C121.047 534.469 123.197 532.783 125.086 530.841C126.832 529.047 128.352 527.034 129.646 524.804C130.945 522.584 131.932 520.276 132.609 517.881C133.35 515.264 133.721 512.542 133.721 509.716C133.721 506.514 133.262 503.457 132.342 500.545C131.68 498.452 130.783 496.436 129.646 494.493C128.299 492.17 126.705 490.091 124.869 488.255C123.033 486.419 120.955 484.827 118.633 483.478C116.635 482.311 114.559 481.394 112.406 480.728C109.553 479.846 106.562 479.404 103.436 479.404C100.666 479.404 97.9941 479.76 95.4199 480.471C92.9648 481.149 90.5977 482.152 88.3203 483.478C86.0898 484.773 84.0781 486.294 82.2832 488.038C80.3418 489.927 78.6562 492.078 77.2246 494.493C76.0645 496.468 75.1484 498.52 74.4805 500.648C73.5762 503.529 73.125 506.552 73.125 509.716C73.125 512.577 73.502 515.331 74.2559 517.978C74.9277 520.339 75.9004 522.614 77.1719 524.804C78.4941 527.064 80.043 529.101 81.8223 530.913C83.6992 532.824 85.8281 534.486 88.2129 535.899C90.2969 537.12 92.4629 538.068 94.709 538.744ZM111.334 525.172C109.047 526.427 106.414 527.055 103.436 527.055C100.424 527.055 97.7715 526.412 95.4805 525.127C95.3262 525.04 95.1719 524.95 95.0215 524.857C94.2441 524.379 93.5254 523.839 92.8613 523.236C91.4922 521.994 90.3633 520.489 89.4727 518.721C88.168 516.076 87.5176 513.074 87.5176 509.716C87.5176 506.267 88.1504 503.248 89.4199 500.657C90.1855 499.102 91.1543 497.75 92.3203 496.602C93.1113 495.823 93.9941 495.138 94.9668 494.547C95.1758 494.421 95.3848 494.302 95.5996 494.187C97.8828 492.962 100.494 492.349 103.436 492.349C106.414 492.349 109.047 492.977 111.334 494.232C111.518 494.333 111.699 494.438 111.879 494.547C112.852 495.138 113.734 495.823 114.525 496.602C115.691 497.75 116.658 499.102 117.426 500.657C118.713 503.248 119.355 506.267 119.355 509.716C119.355 513.074 118.713 516.076 117.426 518.721C116.639 520.329 115.639 521.72 114.428 522.893C113.662 523.635 112.812 524.29 111.879 524.857C111.699 524.966 111.518 525.071 111.334 525.172Z" fill="rgb(255,255,255)" fill-rule="evenodd" />
	<path id="矢量 664" d="M94.709 538.744C97.4922 539.581 100.402 540 103.436 540C106.525 540 109.482 539.566 112.305 538.699C114.494 538.026 116.604 537.093 118.633 535.899C121.047 534.469 123.197 532.783 125.086 530.841C126.832 529.047 128.352 527.034 129.646 524.804C130.945 522.584 131.932 520.276 132.609 517.881C133.35 515.264 133.721 512.542 133.721 509.716C133.721 506.514 133.262 503.457 132.342 500.545C131.68 498.452 130.783 496.436 129.646 494.493C128.299 492.17 126.705 490.091 124.869 488.255C123.033 486.419 120.955 484.827 118.633 483.478C116.635 482.311 114.559 481.394 112.406 480.728C109.553 479.846 106.562 479.404 103.436 479.404C100.666 479.404 97.9941 479.76 95.4199 480.471C92.9648 481.149 90.5977 482.152 88.3203 483.478C86.0898 484.773 84.0781 486.294 82.2832 488.038C80.3418 489.927 78.6562 492.078 77.2246 494.493C76.0645 496.468 75.1484 498.52 74.4805 500.648C73.5762 503.529 73.125 506.552 73.125 509.716C73.125 512.577 73.502 515.331 74.2559 517.978C74.9277 520.339 75.9004 522.614 77.1719 524.804C78.4941 527.064 80.043 529.101 81.8223 530.913C83.6992 532.824 85.8281 534.486 88.2129 535.899C90.2969 537.12 92.4629 538.068 94.709 538.744ZM111.334 525.172C109.047 526.427 106.414 527.055 103.436 527.055C100.424 527.055 97.7715 526.412 95.4805 525.127C95.3262 525.04 95.1719 524.95 95.0215 524.857C94.2441 524.379 93.5254 523.839 92.8613 523.236C91.4922 521.994 90.3633 520.489 89.4727 518.721C88.168 516.076 87.5176 513.074 87.5176 509.716C87.5176 506.267 88.1504 503.248 89.4199 500.657C90.1855 499.102 91.1543 497.75 92.3203 496.602C93.1113 495.823 93.9941 495.138 94.9668 494.547C95.1758 494.421 95.3848 494.302 95.5996 494.187C97.8828 492.962 100.494 492.349 103.436 492.349C106.414 492.349 109.047 492.977 111.334 494.232C111.518 494.333 111.699 494.438 111.879 494.547C112.852 495.138 113.734 495.823 114.525 496.602C115.691 497.75 116.658 499.102 117.426 500.657C118.713 503.248 119.355 506.267 119.355 509.716C119.355 513.074 118.713 516.076 117.426 518.721C116.639 520.329 115.639 521.72 114.428 522.893C113.662 523.635 112.812 524.29 111.879 524.857C111.699 524.966 111.518 525.071 111.334 525.172Z" fill="rgb(255,255,255)" fill-rule="evenodd" />
	<path id="矢量 664" d="M141.346 521.23L141.346 481.271C141.346 481.199 141.363 481.146 141.398 481.11C141.436 481.074 141.488 481.057 141.561 481.057L155.174 481.057C155.246 481.057 155.299 481.074 155.336 481.11C155.371 481.146 155.389 481.199 155.389 481.271L155.389 486.341C155.748 486.036 156.115 485.74 156.488 485.452C158.518 483.881 160.678 482.641 162.969 481.73C166.125 480.478 169.529 479.851 173.184 479.851C173.256 479.851 173.309 479.868 173.346 479.904C173.381 479.939 173.398 479.993 173.398 480.065L173.398 493.251C173.398 493.322 173.381 493.376 173.346 493.411C173.309 493.447 173.256 493.465 173.184 493.465C169.004 493.465 165.609 494.037 163 495.181C161.832 495.688 160.799 496.347 159.902 497.156C158.812 498.142 157.924 499.35 157.238 500.781C156.006 503.372 155.389 506.901 155.389 511.367L155.389 539.025C155.389 539.097 155.371 539.15 155.336 539.187C155.299 539.222 155.246 539.24 155.174 539.24L141.561 539.24C141.488 539.24 141.436 539.222 141.398 539.187C141.363 539.15 141.346 539.097 141.346 539.025L141.346 521.23Z" fill="rgb(255,255,255)" fill-rule="evenodd" />
	<path id="矢量 664" d="M141.346 521.23L141.346 481.271C141.346 481.199 141.363 481.146 141.398 481.11C141.436 481.074 141.488 481.057 141.561 481.057L155.174 481.057C155.246 481.057 155.299 481.074 155.336 481.11C155.371 481.146 155.389 481.199 155.389 481.271L155.389 486.341C155.748 486.036 156.115 485.74 156.488 485.452C158.518 483.881 160.678 482.641 162.969 481.73C166.125 480.478 169.529 479.851 173.184 479.851C173.256 479.851 173.309 479.868 173.346 479.904C173.381 479.939 173.398 479.993 173.398 480.065L173.398 493.251C173.398 493.322 173.381 493.376 173.346 493.411C173.309 493.447 173.256 493.465 173.184 493.465C169.004 493.465 165.609 494.037 163 495.181C161.832 495.688 160.799 496.347 159.902 497.156C158.812 498.142 157.924 499.35 157.238 500.781C156.006 503.372 155.389 506.901 155.389 511.367L155.389 539.025C155.389 539.097 155.371 539.15 155.336 539.187C155.299 539.222 155.246 539.24 155.174 539.24L141.561 539.24C141.488 539.24 141.436 539.222 141.398 539.187C141.363 539.15 141.346 539.097 141.346 539.025L141.346 521.23Z" fill="rgb(255,255,255)" fill-rule="evenodd" />
	<path id="矢量 664" d="M195.02 469.227C195.055 469.19 195.072 469.137 195.072 469.065L195.072 455.987C195.072 455.915 195.055 455.861 195.02 455.826C194.982 455.79 194.93 455.772 194.857 455.772L181.244 455.772C181.172 455.772 181.119 455.79 181.082 455.826C181.047 455.861 181.029 455.915 181.029 455.987L181.029 469.065C181.029 469.137 181.047 469.19 181.082 469.227C181.119 469.262 181.172 469.279 181.244 469.279L194.857 469.279C194.93 469.279 194.982 469.262 195.02 469.227ZM195.02 538.934C195.055 538.897 195.072 538.844 195.072 538.772L195.072 481.019C195.072 480.947 195.055 480.894 195.02 480.857C194.982 480.821 194.93 480.804 194.857 480.804L181.244 480.804C181.172 480.804 181.119 480.821 181.082 480.857C181.047 480.894 181.029 480.947 181.029 481.019L181.029 538.772C181.029 538.844 181.047 538.897 181.082 538.934C181.119 538.97 181.172 538.987 181.244 538.987L194.857 538.987C194.93 538.987 194.982 538.97 195.02 538.934Z" fill="rgb(255,255,255)" fill-rule="evenodd" />
	<path id="矢量 664" d="M195.02 469.227C195.055 469.19 195.072 469.137 195.072 469.065L195.072 455.987C195.072 455.915 195.055 455.861 195.02 455.826C194.982 455.79 194.93 455.772 194.857 455.772L181.244 455.772C181.172 455.772 181.119 455.79 181.082 455.826C181.047 455.861 181.029 455.915 181.029 455.987L181.029 469.065C181.029 469.137 181.047 469.19 181.082 469.227C181.119 469.262 181.172 469.279 181.244 469.279L194.857 469.279C194.93 469.279 194.982 469.262 195.02 469.227ZM195.02 538.934C195.055 538.897 195.072 538.844 195.072 538.772L195.072 481.019C195.072 480.947 195.055 480.894 195.02 480.857C194.982 480.821 194.93 480.804 194.857 480.804L181.244 480.804C181.172 480.804 181.119 480.821 181.082 480.857C181.047 480.894 181.029 480.947 181.029 481.019L181.029 538.772C181.029 538.844 181.047 538.897 181.082 538.934C181.119 538.97 181.172 538.987 181.244 538.987L194.857 538.987C194.93 538.987 194.982 538.97 195.02 538.934Z" fill="rgb(255,255,255)" fill-rule="evenodd" />
	<path id="矢量 664" d="M250.73 525.771C250.699 525.75 250.662 525.74 250.619 525.74L221.969 525.74L248.77 491.061C248.77 491.003 248.781 490.969 248.803 490.957C248.809 490.954 248.816 490.953 248.822 490.953C248.83 490.953 248.836 490.951 248.842 490.949C248.865 490.938 248.877 490.903 248.877 490.846L248.877 480.957C248.877 480.885 248.859 480.831 248.822 480.796C248.787 480.76 248.734 480.742 248.662 480.742L203.637 480.742C203.566 480.742 203.512 480.76 203.477 480.796C203.441 480.831 203.424 480.885 203.424 480.957L203.424 493.687C203.424 493.776 203.441 493.839 203.477 493.874C203.512 493.91 203.566 493.928 203.637 493.928L229.34 493.928L202.539 528.607C202.539 528.665 202.527 528.699 202.504 528.71C202.498 528.713 202.492 528.715 202.484 528.715C202.479 528.715 202.471 528.716 202.467 528.719C202.443 528.73 202.432 528.765 202.432 528.822L202.432 538.711C202.432 538.782 202.449 538.836 202.484 538.872C202.521 538.907 202.574 538.926 202.646 538.926L250.619 538.926C250.689 538.926 250.744 538.907 250.779 538.872C250.814 538.836 250.832 538.782 250.832 538.711L250.832 525.981C250.832 525.909 250.814 525.855 250.779 525.82C250.766 525.8 250.75 525.783 250.73 525.771Z" fill="rgb(255,255,255)" fill-rule="evenodd" />
	<path id="矢量 664" d="M250.73 525.771C250.699 525.75 250.662 525.74 250.619 525.74L221.969 525.74L248.77 491.061C248.77 491.003 248.781 490.969 248.803 490.957C248.809 490.954 248.816 490.953 248.822 490.953C248.83 490.953 248.836 490.951 248.842 490.949C248.865 490.938 248.877 490.903 248.877 490.846L248.877 480.957C248.877 480.885 248.859 480.831 248.822 480.796C248.787 480.76 248.734 480.742 248.662 480.742L203.637 480.742C203.566 480.742 203.512 480.76 203.477 480.796C203.441 480.831 203.424 480.885 203.424 480.957L203.424 493.687C203.424 493.776 203.441 493.839 203.477 493.874C203.512 493.91 203.566 493.928 203.637 493.928L229.34 493.928L202.539 528.607C202.539 528.665 202.527 528.699 202.504 528.71C202.498 528.713 202.492 528.715 202.484 528.715C202.479 528.715 202.471 528.716 202.467 528.719C202.443 528.73 202.432 528.765 202.432 528.822L202.432 538.711C202.432 538.782 202.449 538.836 202.484 538.872C202.521 538.907 202.574 538.926 202.646 538.926L250.619 538.926C250.689 538.926 250.744 538.907 250.779 538.872C250.814 538.836 250.832 538.782 250.832 538.711L250.832 525.981C250.832 525.909 250.814 525.855 250.779 525.82C250.766 525.8 250.75 525.783 250.73 525.771Z" fill="rgb(255,255,255)" fill-rule="evenodd" />
	<path id="矢量 664" d="M293.535 525.771C293.504 525.75 293.467 525.74 293.424 525.74L264.773 525.74L291.574 491.061C291.574 491.003 291.586 490.969 291.607 490.957C291.613 490.954 291.621 490.953 291.627 490.953C291.635 490.953 291.641 490.951 291.646 490.949C291.67 490.938 291.682 490.903 291.682 490.846L291.682 480.957C291.682 480.885 291.664 480.831 291.627 480.796C291.592 480.76 291.539 480.742 291.467 480.742L246.441 480.742C246.371 480.742 246.316 480.76 246.281 480.796C246.246 480.831 246.229 480.885 246.229 480.957L246.229 493.687C246.229 493.776 246.246 493.839 246.281 493.874C246.316 493.91 246.371 493.928 246.441 493.928L272.145 493.928L245.344 528.607C245.344 528.665 245.332 528.699 245.309 528.71C245.303 528.713 245.297 528.715 245.289 528.715C245.283 528.715 245.275 528.716 245.271 528.719C245.248 528.73 245.236 528.765 245.236 528.822L245.236 538.711C245.236 538.782 245.254 538.836 245.289 538.872C245.326 538.907 245.379 538.926 245.451 538.926L293.424 538.926C293.494 538.926 293.549 538.907 293.584 538.872C293.619 538.836 293.637 538.782 293.637 538.711L293.637 525.981C293.637 525.909 293.619 525.855 293.584 525.82C293.57 525.8 293.555 525.783 293.535 525.771Z" fill="rgb(255,255,255)" fill-rule="evenodd" />
	<path id="矢量 664" d="M293.535 525.771C293.504 525.75 293.467 525.74 293.424 525.74L264.773 525.74L291.574 491.061C291.574 491.003 291.586 490.969 291.607 490.957C291.613 490.954 291.621 490.953 291.627 490.953C291.635 490.953 291.641 490.951 291.646 490.949C291.67 490.938 291.682 490.903 291.682 490.846L291.682 480.957C291.682 480.885 291.664 480.831 291.627 480.796C291.592 480.76 291.539 480.742 291.467 480.742L246.441 480.742C246.371 480.742 246.316 480.76 246.281 480.796C246.246 480.831 246.229 480.885 246.229 480.957L246.229 493.687C246.229 493.776 246.246 493.839 246.281 493.874C246.316 493.91 246.371 493.928 246.441 493.928L272.145 493.928L245.344 528.607C245.344 528.665 245.332 528.699 245.309 528.71C245.303 528.713 245.297 528.715 245.289 528.715C245.283 528.715 245.275 528.716 245.271 528.719C245.248 528.73 245.236 528.765 245.236 528.822L245.236 538.711C245.236 538.782 245.254 538.836 245.289 538.872C245.326 538.907 245.379 538.926 245.451 538.926L293.424 538.926C293.494 538.926 293.549 538.907 293.584 538.872C293.619 538.836 293.637 538.782 293.637 538.711L293.637 525.981C293.637 525.909 293.619 525.855 293.584 525.82C293.57 525.8 293.555 525.783 293.535 525.771Z" fill="rgb(255,255,255)" fill-rule="evenodd" />
	<path id="矢量 664" d="M321.219 537.853C324.002 538.689 326.91 539.108 329.945 539.108C333.035 539.108 335.992 538.675 338.814 537.808C341.004 537.135 343.113 536.201 345.141 535.008C347.557 533.577 349.707 531.892 351.596 529.949C353.34 528.155 354.861 526.143 356.156 523.912C357.453 521.692 358.441 519.385 359.119 516.989C359.859 514.372 360.23 511.65 360.23 508.824C360.23 505.622 359.77 502.565 358.852 499.653C358.189 497.561 357.291 495.544 356.156 493.602C354.807 491.278 353.215 489.199 351.379 487.363C349.543 485.527 347.465 483.936 345.141 482.586C343.145 481.419 341.068 480.502 338.916 479.836C336.062 478.954 333.072 478.513 329.945 478.513C327.176 478.513 324.504 478.868 321.93 479.579C319.473 480.258 317.107 481.261 314.83 482.586C312.6 483.882 310.588 485.402 308.793 487.146C306.852 489.035 305.166 491.187 303.734 493.602C302.574 495.576 301.658 497.628 300.99 499.757C300.086 502.638 299.635 505.66 299.635 508.824C299.635 511.686 300.012 514.439 300.766 517.086C301.438 519.447 302.41 521.723 303.682 523.912C305.004 526.173 306.553 528.209 308.332 530.021C310.207 531.933 312.338 533.595 314.723 535.008C316.807 536.229 318.973 537.177 321.219 537.853ZM337.844 524.28C335.557 525.535 332.924 526.163 329.945 526.163C326.934 526.163 324.281 525.521 321.99 524.235C321.836 524.148 321.682 524.059 321.531 523.966C320.754 523.487 320.035 522.947 319.371 522.345C318.002 521.103 316.873 519.598 315.982 517.829C314.678 515.185 314.027 512.183 314.027 508.824C314.027 505.375 314.66 502.356 315.93 499.766C316.695 498.21 317.662 496.858 318.83 495.71C319.621 494.932 320.502 494.246 321.477 493.655C321.684 493.529 321.895 493.41 322.107 493.295C324.393 492.07 327.004 491.457 329.945 491.457C332.924 491.457 335.557 492.085 337.844 493.341C338.027 493.441 338.209 493.546 338.389 493.655C339.361 494.246 340.244 494.932 341.035 495.71C342.201 496.858 343.168 498.21 343.936 499.766C345.223 502.356 345.865 505.375 345.865 508.824C345.865 512.183 345.223 515.185 343.936 517.829C343.146 519.438 342.148 520.828 340.938 522.001C340.172 522.743 339.322 523.398 338.389 523.966C338.209 524.074 338.027 524.18 337.844 524.28Z" fill="rgb(255,255,255)" fill-rule="evenodd" />
	<path id="矢量 664" d="M321.219 537.853C324.002 538.689 326.91 539.108 329.945 539.108C333.035 539.108 335.992 538.675 338.814 537.808C341.004 537.135 343.113 536.201 345.141 535.008C347.557 533.577 349.707 531.892 351.596 529.949C353.34 528.155 354.861 526.143 356.156 523.912C357.453 521.692 358.441 519.385 359.119 516.989C359.859 514.372 360.23 511.65 360.23 508.824C360.23 505.622 359.77 502.565 358.852 499.653C358.189 497.561 357.291 495.544 356.156 493.602C354.807 491.278 353.215 489.199 351.379 487.363C349.543 485.527 347.465 483.936 345.141 482.586C343.145 481.419 341.068 480.502 338.916 479.836C336.062 478.954 333.072 478.513 329.945 478.513C327.176 478.513 324.504 478.868 321.93 479.579C319.473 480.258 317.107 481.261 314.83 482.586C312.6 483.882 310.588 485.402 308.793 487.146C306.852 489.035 305.166 491.187 303.734 493.602C302.574 495.576 301.658 497.628 300.99 499.757C300.086 502.638 299.635 505.66 299.635 508.824C299.635 511.686 300.012 514.439 300.766 517.086C301.438 519.447 302.41 521.723 303.682 523.912C305.004 526.173 306.553 528.209 308.332 530.021C310.207 531.933 312.338 533.595 314.723 535.008C316.807 536.229 318.973 537.177 321.219 537.853ZM337.844 524.28C335.557 525.535 332.924 526.163 329.945 526.163C326.934 526.163 324.281 525.521 321.99 524.235C321.836 524.148 321.682 524.059 321.531 523.966C320.754 523.487 320.035 522.947 319.371 522.345C318.002 521.103 316.873 519.598 315.982 517.829C314.678 515.185 314.027 512.183 314.027 508.824C314.027 505.375 314.66 502.356 315.93 499.766C316.695 498.21 317.662 496.858 318.83 495.71C319.621 494.932 320.502 494.246 321.477 493.655C321.684 493.529 321.895 493.41 322.107 493.295C324.393 492.07 327.004 491.457 329.945 491.457C332.924 491.457 335.557 492.085 337.844 493.341C338.027 493.441 338.209 493.546 338.389 493.655C339.361 494.246 340.244 494.932 341.035 495.71C342.201 496.858 343.168 498.21 343.936 499.766C345.223 502.356 345.865 505.375 345.865 508.824C345.865 512.183 345.223 515.185 343.936 517.829C343.146 519.438 342.148 520.828 340.938 522.001C340.172 522.743 339.322 523.398 338.389 523.966C338.209 524.074 338.027 524.18 337.844 524.28Z" fill="rgb(255,255,255)" fill-rule="evenodd" />
	<path id="矢量 664" d="M382.535 538.699C382.57 538.68 382.588 538.651 382.588 538.613L382.588 492.566L421.012 538.593C421.012 538.611 421.02 538.627 421.031 538.642C421.053 538.663 421.086 538.681 421.137 538.693C421.219 538.716 421.303 538.728 421.385 538.728L438.666 538.728C438.77 538.728 438.842 538.716 438.883 538.693C438.924 538.672 438.945 538.638 438.945 538.593L389.615 479.538C389.615 479.521 389.607 479.505 389.594 479.49C389.574 479.469 389.539 479.451 389.49 479.438C389.408 479.415 389.324 479.404 389.242 479.404L382.377 479.404L371.961 479.404L368.957 479.404C368.887 479.404 368.834 479.414 368.799 479.433C368.764 479.451 368.746 479.48 368.746 479.518L368.746 538.613C368.746 538.651 368.764 538.68 368.799 538.699C368.834 538.718 368.887 538.728 368.957 538.728L382.377 538.728C382.447 538.728 382.5 538.718 382.535 538.699Z" fill="rgb(255,255,255)" fill-rule="evenodd" />
	<path id="矢量 664" d="M382.535 538.699C382.57 538.68 382.588 538.651 382.588 538.613L382.588 492.566L421.012 538.593C421.012 538.611 421.02 538.627 421.031 538.642C421.053 538.663 421.086 538.681 421.137 538.693C421.219 538.716 421.303 538.728 421.385 538.728L438.666 538.728C438.77 538.728 438.842 538.716 438.883 538.693C438.924 538.672 438.945 538.638 438.945 538.593L389.615 479.538C389.615 479.521 389.607 479.505 389.594 479.49C389.574 479.469 389.539 479.451 389.49 479.438C389.408 479.415 389.324 479.404 389.242 479.404L382.377 479.404L371.961 479.404L368.957 479.404C368.887 479.404 368.834 479.414 368.799 479.433C368.764 479.451 368.746 479.48 368.746 479.518L368.746 538.613C368.746 538.651 368.764 538.68 368.799 538.699C368.834 538.718 368.887 538.728 368.957 538.728L382.377 538.728C382.447 538.728 382.5 538.718 382.535 538.699Z" fill="rgb(255,255,255)" fill-rule="evenodd" />
	<path id="矢量 664" d="M105.932 122.612L105.932 34.5303L219.18 82.0996L105.932 122.612Z" fill="rgb(255,255,255)" fill-rule="evenodd" />
	<path id="矢量 664" d="M105.932 122.612L105.932 34.5303L219.18 82.0996L105.932 122.612Z" fill="rgb(255,255,255)" fill-rule="evenodd" />
	<path id="矢量 664" d="M332.428 126.026L332.428 210.694L219.18 166.653L219.18 82.0996L332.428 126.026Z" fill="rgb(255,255,255)" fill-rule="evenodd" />
	<path id="矢量 664" d="M332.428 126.026L332.428 210.694L219.18 166.653L219.18 82.0996L332.428 126.026Z" fill="rgb(255,255,255)" fill-rule="evenodd" />
	<path id="矢量 664" d="M212.719 81.9248L108.273 38.0527L108.273 119.288L212.719 81.9248ZM220.057 79.9277L103.592 31.0078L103.592 125.937L216.84 85.4229L216.84 168.255L334.77 214.116L334.77 124.424L220.057 79.9277ZM221.521 85.5186L330.088 127.629L330.088 207.272L221.521 165.052L221.521 85.5186Z" fill="rgb(255,255,255)" fill-rule="evenodd" />
	<path id="矢量 664" d="M212.719 81.9248L108.273 38.0527L108.273 119.288L212.719 81.9248ZM220.057 79.9277L103.592 31.0078L103.592 125.937L216.84 85.4229L216.84 168.255L334.77 214.116L334.77 124.424L220.057 79.9277ZM221.521 85.5186L330.088 127.629L330.088 207.272L221.521 165.052L221.521 85.5186Z" fill="rgb(255,255,255)" fill-rule="evenodd" />
	<path id="矢量 664" d="M0 157.812L438.945 0L438.945 87.999L0 245.81L0 157.812Z" fill="rgb(255,255,255)" fill-rule="evenodd" />
	<path id="矢量 664" d="M0 157.812L438.945 0L438.945 87.999L0 245.81L0 157.812Z" fill="rgb(196,196,196)" fill-opacity="0" fill-rule="evenodd" />
	<path id="矢量 664" d="M438.945 0L0 157.812L0 245.81L438.945 87.999L438.945 0ZM17.5586 220.84L17.5586 170.157L421.389 24.9707L421.389 75.6533L17.5586 220.84Z" fill="rgb(255,255,255)" fill-rule="evenodd" />
	<path id="矢量 664" d="M438.945 0L0 157.812L0 245.81L438.945 87.999L438.945 0ZM17.5586 220.84L17.5586 170.157L421.389 24.9707L421.389 75.6533L17.5586 220.84Z" fill="rgb(255,255,255)" fill-rule="evenodd" />
	<path id="矢量 664" d="M210.109 0L227.666 0L227.666 245.81L210.109 245.81L210.109 0Z" fill="rgb(255,255,255)" fill-rule="evenodd" />
	<path id="矢量 664" d="M210.109 0L227.666 0L227.666 245.81L210.109 245.81L210.109 0Z" fill="rgb(255,255,255)" fill-rule="evenodd" />
	<path id="矢量 664" d="M0 280.926L17.5586 280.926L17.5586 316.041L0 316.041L0 280.926Z" fill="rgb(255,255,255)" fill-rule="evenodd" />
	<path id="矢量 664" d="M0 280.926L17.5586 280.926L17.5586 316.041L0 316.041L0 280.926Z" fill="rgb(255,255,255)" fill-rule="evenodd" />
	<path id="矢量 664" d="M210.693 280.926L228.252 280.926L228.252 316.041L210.693 316.041L210.693 280.926Z" fill="rgb(255,255,255)" fill-rule="evenodd" />
	<path id="矢量 664" d="M210.693 280.926L228.252 280.926L228.252 316.041L210.693 316.041L210.693 280.926Z" fill="rgb(255,255,255)" fill-rule="evenodd" />
	<path id="矢量 664" d="M421.389 280.926L438.947 280.926L438.947 316.041L421.389 316.041L421.389 280.926Z" fill="rgb(255,255,255)" fill-rule="evenodd" />
	<path id="矢量 664" d="M421.389 280.926L438.947 280.926L438.947 316.041L421.389 316.041L421.389 280.926Z" fill="rgb(255,255,255)" fill-rule="evenodd" />
	<path id="矢量 664" d="M105.348 280.926L122.906 280.926L122.906 316.041L105.348 316.041L105.348 280.926Z" fill="rgb(255,255,255)" fill-rule="evenodd" />
	<path id="矢量 664" d="M105.348 280.926L122.906 280.926L122.906 316.041L105.348 316.041L105.348 280.926Z" fill="rgb(255,255,255)" fill-rule="evenodd" />
	<path id="矢量 664" d="M316.041 280.926L333.6 280.926L333.6 316.041L316.041 316.041L316.041 280.926Z" fill="rgb(255,255,255)" fill-rule="evenodd" />
	<path id="矢量 664" d="M316.041 280.926L333.6 280.926L333.6 316.041L316.041 316.041L316.041 280.926Z" fill="rgb(255,255,255)" fill-rule="evenodd" />
</svg>
